<mxfile host="app.diagrams.net" modified="2020-08-23T16:15:00.251Z" agent="5.0 (Windows NT 10.0; Win64; x64) AppleWebKit/537.36 (KHTML, like Gecko) Chrome/84.0.4147.135 Safari/537.36" etag="mhWG5D2oizNrz6a3DWHm" version="13.6.4" type="github">
  <diagram id="e-yMK6qeZy1Brl9lkRHt" name="Page-1">
    <mxGraphModel dx="2062" dy="1238" grid="1" gridSize="10" guides="1" tooltips="1" connect="1" arrows="1" fold="1" page="1" pageScale="1" pageWidth="1600" pageHeight="900" math="0" shadow="0">
      <root>
        <mxCell id="0" />
        <mxCell id="1" parent="0" />
        <mxCell id="KPpk_zpBTMJ83q5LS3Xw-1" value="" style="whiteSpace=wrap;html=1;aspect=fixed;fillColor=#000000;" parent="1" vertex="1">
          <mxGeometry x="500" y="150" width="600" height="600" as="geometry" />
        </mxCell>
      </root>
    </mxGraphModel>
  </diagram>
</mxfile>
